HIERARCHY
ROOT root
{
	OFFSET	0	13.1	24.9
	CHANNELS 6  Xposition Yposition Zposition Xrotation Yrotation Zrotation
	JOINT spine_1
	{
		OFFSET	0	9.99999	0
		CHANNELS 3  Xrotation Yrotation Zrotation
		JOINT spine_2
		{
			OFFSET	0	112	-10
			CHANNELS 3  Xrotation Yrotation Zrotation
			JOINT spine_3
			{
				OFFSET	0	206.5	19.3
				CHANNELS 3  Xrotation Yrotation Zrotation
				JOINT spine_4
				{
					OFFSET	0	110.4	14.6
					CHANNELS 3  Xrotation Yrotation Zrotation
					JOINT neck_1
					{
						OFFSET	0	71.8	-50.3
						CHANNELS 3  Xrotation Yrotation Zrotation
						JOINT neck_2
						{
							OFFSET	0	86.2	-25.8
							CHANNELS 3  Xrotation Yrotation Zrotation
							JOINT head_ee
							{
								OFFSET	0	179.8	-8.7
								CHANNELS 3  Xrotation Yrotation Zrotation
								End Site
								{
									OFFSET	1	0	0
								}
							}
						}
					}
					JOINT left_clavicle
					{
						OFFSET	-43.2	22.4	-70.8
						CHANNELS 3  Xrotation Yrotation Zrotation
						JOINT left_shoulder
						{
							OFFSET	-93.9	-5.79999	48.7
							CHANNELS 3  Xrotation Yrotation Zrotation
							JOINT left_elbow
							{
								OFFSET	-291.4	-30.8	15.2
								CHANNELS 3  Xrotation Yrotation Zrotation
								JOINT left_lowarm_twist
								{
									OFFSET	-110.7	-3.89999	13.6
									CHANNELS 3  Xrotation Yrotation Zrotation
									JOINT left_hand
									{
										OFFSET	-110.7	-3.89999	13.6
										CHANNELS 3  Xrotation Yrotation Zrotation
										JOINT left_ee
										{
											OFFSET	-80.8	-5.10001	12.1
											CHANNELS 3  Xrotation Yrotation Zrotation
											End Site
											{
												OFFSET	1	0	0
											}
										}
									}
								}
							}
						}
					}
					JOINT right_clavicle
					{
						OFFSET	43.2	22.4	-70.8
						CHANNELS 3  Xrotation Yrotation Zrotation
						JOINT right_shoulder
						{
							OFFSET	93.9	-5.79999	48.7
							CHANNELS 3  Xrotation Yrotation Zrotation
							JOINT right_elbow
							{
								OFFSET	291.4	-30.8	15.2
								CHANNELS 3  Xrotation Yrotation Zrotation
								JOINT right_lowarm_twist
								{
									OFFSET	110.7	-3.89999	13.6
									CHANNELS 3  Xrotation Yrotation Zrotation
									JOINT right_hand
									{
										OFFSET	110.7	-3.89999	13.6
										CHANNELS 3  Xrotation Yrotation Zrotation
										JOINT right_ee
										{
											OFFSET	80.8	-5.10001	12.1
											CHANNELS 3  Xrotation Yrotation Zrotation
											End Site
											{
												OFFSET	1	0	0
											}
										}
									}
								}
							}
						}
					}
				}
			}
		}
	}
	JOINT left_hip
	{
		OFFSET	-82.8	-127.5	0.300001
		CHANNELS 3  Xrotation Yrotation Zrotation
		JOINT left_knee
		{
			OFFSET	-28.2	-396.7	2.2
			CHANNELS 3  Xrotation Yrotation Zrotation
			JOINT left_ankle
			{
				OFFSET	-11.7	-411.3	35.4
				CHANNELS 3  Xrotation Yrotation Zrotation
				JOINT left_toes
				{
					OFFSET	0	-60	-88.6
					CHANNELS 3  Xrotation Yrotation Zrotation
					JOINT left_foot_ee
					{
						OFFSET	-22.5	-16.5	-42.2
						CHANNELS 3  Xrotation Yrotation Zrotation
						End Site
						{
							OFFSET	1	0	0
						}
					}
				}
			}
		}
	}
	JOINT right_hip
	{
		OFFSET	82.8	-127.5	0.300001
		CHANNELS 3  Xrotation Yrotation Zrotation
		JOINT right_knee
		{
			OFFSET	28.2	-396.7	2.2
			CHANNELS 3  Xrotation Yrotation Zrotation
			JOINT right_ankle
			{
				OFFSET	11.7	-411.3	35.4
				CHANNELS 3  Xrotation Yrotation Zrotation
				JOINT right_toes
				{
					OFFSET	0	-60	-88.6
					CHANNELS 3  Xrotation Yrotation Zrotation
					JOINT right_foot_ee
					{
						OFFSET	22.5	-16.5	-42.2
						CHANNELS 3  Xrotation Yrotation Zrotation
						End Site
						{
							OFFSET	1	0	0
						}
					}
				}
			}
		}
	}
}
MOTION
Frames: 14
Frame Time: 0.02
2800.94 716.97 -1473.77 -7.21795376203 49.0323093502 0.00401264196663 1.18976 0.341046 2.18541 1.1924 0.201326 2.20267 1.20068 -0.220108 2.20087 1.19394 0.130153 2.20801 -2.27752 20.5188 -0.848185 -1.43492 37.9239 1.6787 -0.0 0.0 -0.0 3.67248 13.0452 7.61651 15.4019 -19.9504 45.7085 4.24605 -64.5525 2.68252 -10.2614 -0.472438 1.22216 -1.91204 6.30467 -9.90267 -0.0 0.0 -0.0 13.0537 25.5339 -25.8554 -19.1606 -3.21862 -61.2499 0.227102 6.41892 -0.0127346 13.9931 -0.279186 1.76126 -1.75843 4.374 13.8285 0.0 0.0 0.0 -12.9581 4.63414 23.9969 2.64629 -0.117985 -0.38888 42.5562 24.9542 -5.40497 -21.3063 0.0 0.0 -0.0 0.0 -0.0 42.0651 -3.61468 -9.75956 -10.5343 -0.288366 -1.58869 -2.20432 19.8177 -0.368269 -20.1029 0.0 0.0 0.0 0.0 0.0 
2647.68432348 726.526 -1499.28717295 -3.85502790712 54.7438198384 -3.28876845072 1.15181 0.37249 1.91353 1.15381 0.249996 1.93335 1.16273 -0.122475 1.94559 1.1575 0.186272 1.94052 0.433399 17.8315 -3.98933 1.65825 34.999 -2.87001 -0.0 0.0 -0.0 1.48137 19.5749 4.47671 1.99693 -21.6388 55.1048 3.00756 -56.1188 1.60341 -6.38469 -0.268228 0.77043 -1.22757 6.03182 -5.51403 -0.0 0.0 -0.0 13.4812 24.517 -26.9622 -16.194 -1.76354 -61.0037 0.273662 7.72037 -0.0184654 14.6826 -0.281745 1.84929 -1.96997 1.40134 13.93 0.0 0.0 0.0 -15.0476 3.24681 23.7932 -12.3852 0.308644 1.87195 38.933 23.6255 -5.02243 -21.124 0.0 0.0 -0.0 0.0 -0.0 31.3409 -1.7585 -5.62461 -14.431 -0.320399 -2.1856 -6.1999 24.7505 -1.1004 -19.3723 0.0 0.0 0.0 0.0 0.0 
2648.22393361 726.526 -1502.33976666 -3.75000671909 53.6031261961 -3.41829100648 1.15181 0.37249 1.91353 1.15381 0.249996 1.93335 1.16273 -0.122475 1.94559 1.1575 0.186272 1.94052 0.433399 17.8315 -3.98933 1.65825 34.999 -2.87001 -0.0 0.0 -0.0 1.48137 19.5749 4.47671 1.99693 -21.6388 55.1048 3.00756 -56.1188 1.60341 -6.38469 -0.268228 0.77043 -1.22757 6.03182 -5.51403 -0.0 0.0 -0.0 13.4812 24.517 -26.9622 -16.194 -1.76354 -61.0037 0.273662 7.72037 -0.0184654 14.6826 -0.281745 1.84929 -1.96997 1.40134 13.93 0.0 0.0 0.0 -15.0476 3.24681 23.7932 -12.3852 0.308644 1.87195 38.933 23.6255 -5.02243 -21.124 0.0 0.0 -0.0 0.0 -0.0 31.3409 -1.7585 -5.62461 -14.431 -0.320399 -2.1856 -6.1999 24.7505 -1.1004 -19.3723 0.0 0.0 0.0 0.0 0.0 
2623.85984845 729.274 -1508.46295213 -2.48816136733 54.4802283128 -4.32068578845 1.15292 0.303826 1.84449 1.15479 0.185861 1.86008 1.16124 -0.171574 1.86145 1.15643 0.124509 1.86519 1.71788 17.7481 -4.78824 3.20758 35.2702 -4.19518 -0.0 0.0 -0.0 0.970634 20.1435 3.76856 -1.18027 -21.267 56.4682 2.77517 -53.9575 1.41293 -5.87277 -0.243567 0.709793 -1.07734 6.3424 -4.38979 -0.0 0.0 -0.0 13.4292 24.803 -26.8095 -15.3606 -1.12681 -61.7557 0.297691 8.38899 -0.0218324 14.8396 -0.28218 1.86934 -2.02749 0.259703 13.7936 0.0 0.0 0.0 -14.1498 2.516 22.9275 -16.7313 0.320234 2.5385 39.9371 23.8113 -5.12458 -21.1134 0.0 0.0 -0.0 0.0 -0.0 28.3811 -0.811217 -4.64704 -14.6953 -0.3211 -2.22615 -3.60095 23.7235 -0.628183 -17.7116 0.0 0.0 0.0 0.0 0.0 
2624.6368125 729.274 -1512.21693845 -2.41680177192 53.2640841797 -4.40902956236 1.15292 0.303826 1.84449 1.15479 0.185861 1.86008 1.16124 -0.171574 1.86145 1.15643 0.124509 1.86519 1.71788 17.7481 -4.78824 3.20758 35.2702 -4.19518 -0.0 0.0 -0.0 0.970634 20.1435 3.76856 -1.18027 -21.267 56.4682 2.77517 -53.9575 1.41293 -5.87277 -0.243567 0.709793 -1.07734 6.3424 -4.38979 -0.0 0.0 -0.0 13.4292 24.803 -26.8095 -15.3606 -1.12681 -61.7557 0.297691 8.38899 -0.0218324 14.8396 -0.28218 1.86934 -2.02749 0.259703 13.7936 0.0 0.0 0.0 -14.1498 2.516 22.9275 -16.7313 0.320234 2.5385 39.9371 23.8113 -5.12458 -21.1134 0.0 0.0 -0.0 0.0 -0.0 28.3811 -0.811217 -4.64704 -14.6953 -0.3211 -2.22615 -3.60095 23.7235 -0.628183 -17.7116 0.0 0.0 0.0 0.0 0.0 
2599.17478892 737.84 -1517.69123973 -1.25000934564 52.4234749972 -5.48635147984 1.09608 0.551327 1.85735 1.0979 0.432043 1.88865 1.11275 0.0631676 1.93639 1.1077 0.368136 1.90214 2.45236 17.5001 -5.32636 4.07927 35.1436 -5.05778 -0.0 0.0 -0.0 0.693098 20.8941 3.43119 -3.77045 -20.8599 58.27 2.60932 -52.2639 1.28027 -4.95483 -0.200709 0.600528 -1.02376 6.39756 -4.0146 -0.0 0.0 -0.0 13.5567 24.7929 -27.108 -14.3865 -0.631114 -62.5278 0.347689 9.77266 -0.0297241 15.2664 -0.283084 1.92385 -1.91879 1.17042 13.4697 0.0 0.0 0.0 -14.353 3.55999 22.2668 -18.6581 0.309194 2.83391 39.604 23.9396 -5.0966 -21.4161 0.0 0.0 -0.0 0.0 -0.0 25.1562 -1.37045 -4.53087 -13.6201 -0.317079 -2.06122 -0.892834 26.2962 -0.159348 -16.7536 0.0 0.0 0.0 0.0 0.0 
2557.9837559 742.021 -1522.64272399 0.0367712623291 54.9340623886 -5.53316916897 0.975609 0.524193 1.61902 0.97697 0.420122 1.64909 0.989602 0.0935899 1.69917 0.985754 0.360731 1.66308 3.11785 17.6305 -5.56827 4.89708 35.4532 -5.5575 -0.0 0.0 -0.0 0.0703522 21.9033 2.64271 -7.75165 -19.8272 60.365 1.98314 -44.486 0.811107 -2.16114 -0.0811418 0.264022 -0.601479 5.87432 -1.48142 -0.0 0.0 -0.0 13.6079 25.5492 -27.1409 -13.6167 3.03037 -63.8048 0.521422 14.483 -0.0662551 16.2398 -0.283626 2.04817 -1.96193 -2.68472 11.9577 0.0 0.0 0.0 -9.56772 4.71319 17.7094 -33.5365 -0.107555 5.07285 42.2224 18.9314 -5.20335 -21.4708 0.0 0.0 -0.0 0.0 -0.0 22.4707 -1.23667 -4.29626 -15.2941 -0.321997 -2.31801 5.45448 29.3951 0.992105 -15.2286 0.0 0.0 0.0 0.0 0.0 
2547.39359675 742.454 -1522.31229287 -0.0954052298006 55.8540202878 -4.93979775384 1.05008 0.50803 1.38994 1.05106 0.418564 1.41944 1.06183 0.138287 1.47339 1.05899 0.369221 1.43307 2.53811 17.8183 -4.89065 4.16673 35.3297 -4.57563 -0.0 0.0 -0.0 0.0154662 22.3044 2.60917 -8.71884 -19.7583 61.1164 1.76872 -41.2201 0.665218 -0.565551 -0.02027 0.0693807 -0.504894 5.6232 -0.957032 -0.0 0.0 -0.0 13.7781 26.6047 -27.409 -12.3816 3.37349 -64.1532 0.5326 14.78 -0.0690786 16.5326 -0.283376 2.08556 -2.02848 -3.72348 11.9142 0.0 0.0 0.0 -8.05657 7.98653 15.0453 -37.7667 -0.330836 5.68309 41.6154 16.3878 -5.09846 -21.5932 0.0 0.0 -0.0 0.0 -0.0 21.1097 -1.73962 -4.26849 -14.2095 -0.319667 -2.15162 7.64886 29.572 1.38271 -14.9701 0.0 0.0 0.0 0.0 0.0 
2547.97729604 742.454 -1525.26760387 -0.0937978080706 55.1854254188 -4.94174771526 1.05008 0.50803 1.38994 1.05106 0.418564 1.41944 1.06183 0.138287 1.47339 1.05899 0.369221 1.43307 2.53811 17.8183 -4.89065 4.16673 35.3297 -4.57563 -0.0 0.0 -0.0 0.0154662 22.3044 2.60917 -8.71884 -19.7583 61.1164 1.76872 -41.2201 0.665218 -0.565551 -0.02027 0.0693807 -0.504894 5.6232 -0.957032 -0.0 0.0 -0.0 13.7781 26.6047 -27.409 -12.3816 3.37349 -64.1532 0.5326 14.78 -0.0690786 16.5326 -0.283376 2.08556 -2.02848 -3.72348 11.9142 0.0 0.0 0.0 -8.05657 7.98653 15.0453 -37.7667 -0.330836 5.68309 41.6154 16.3878 -5.09846 -21.5932 0.0 0.0 -0.0 0.0 -0.0 21.1097 -1.73962 -4.26849 -14.2095 -0.319667 -2.15162 7.64886 29.572 1.38271 -14.9701 0.0 0.0 0.0 0.0 0.0 
2529.86432972 738.787 -1523.38610104 -0.300127146791 57.0891581781 -4.40980526521 1.16166 0.383038 1.41883 1.16273 0.291988 1.44032 1.17039 0.0127998 1.46956 1.16746 0.244703 1.4491 3.75503 16.7334 -5.91797 5.51035 34.0676 -6.15498 -0.0 0.0 -0.0 -0.00402597 22.6164 2.61618 -10.6387 -20.445 61.4239 1.53006 -37.1576 0.514318 0.846579 0.0290584 -0.104217 -0.198226 4.40418 0.539156 -0.0 0.0 -0.0 13.8187 26.3619 -27.5342 -11.184 4.7897 -64.0484 0.66629 18.2661 -0.107118 17.4827 -0.281249 2.20691 -1.75575 -5.05597 9.45465 0.0 0.0 0.0 -7.28299 10.1782 13.1826 -42.0599 -0.602992 6.28421 40.3171 10.5454 -4.90854 -20.5563 0.0 0.0 -0.0 0.0 -0.0 20.3025 -3.17183 -4.13328 -14.716 -0.321147 -2.22932 12.2129 30.1259 2.18031 -16.1512 0.0 0.0 0.0 0.0 0.0 
2530.88166395 738.787 -1528.65416555 -0.291416203811 55.9736329899 -4.42024719056 1.16166 0.383038 1.41883 1.16273 0.291988 1.44032 1.17039 0.0127998 1.46956 1.16746 0.244703 1.4491 3.75503 16.7334 -5.91797 5.51035 34.0676 -6.15498 -0.0 0.0 -0.0 -0.00402597 22.6164 2.61618 -10.6387 -20.445 61.4239 1.53006 -37.1576 0.514318 0.846579 0.0290584 -0.104217 -0.198226 4.40418 0.539156 -0.0 0.0 -0.0 13.8187 26.3619 -27.5342 -11.184 4.7897 -64.0484 0.66629 18.2661 -0.107118 17.4827 -0.281249 2.20691 -1.75575 -5.05597 9.45465 0.0 0.0 0.0 -7.28299 10.1782 13.1826 -42.0599 -0.602992 6.28421 40.3171 10.5454 -4.90854 -20.5563 0.0 0.0 -0.0 0.0 -0.0 20.3025 -3.17183 -4.13328 -14.716 -0.321147 -2.22932 12.2129 30.1259 2.18031 -16.1512 0.0 0.0 0.0 0.0 0.0 
2510.06366993 744.338 -1526.53496571 -1.07272375398 59.4348449791 -3.53556162357 1.08885 0.244203 1.47459 1.09005 0.149887 1.48714 1.09423 -0.137639 1.48832 1.09115 0.0991142 1.49138 3.76785 15.9256 -5.4548 5.31001 32.2744 -5.59347 -0.0 0.0 -0.0 0.131172 22.754 2.81902 -12.2572 -21.6861 62.516 1.26121 -31.9944 0.361594 2.20288 0.0723904 -0.27203 0.102639 3.32719 2.07422 -0.0 0.0 -0.0 13.9376 26.1728 -27.8356 -8.68864 6.24142 -64.5111 0.850913 22.8561 -0.17201 18.8451 -0.274687 2.38079 -1.40173 -6.34005 6.51814 0.0 0.0 0.0 -4.22272 12.4701 9.90471 -42.651 -0.643979 6.36535 37.3523 1.88101 -4.62926 -18.5422 0.0 0.0 -0.0 0.0 -0.0 19.0133 -4.71123 -2.67417 -14.7229 -0.321162 -2.23038 19.6838 29.5146 3.35209 -17.073 0.0 0.0 0.0 0.0 0.0 
2512.17452413 744.338 -1537.07624731 -1.01114309095 57.3514733989 -3.6078559286 1.08885 0.244203 1.47459 1.09005 0.149887 1.48714 1.09423 -0.137639 1.48832 1.09115 0.0991142 1.49138 3.76785 15.9256 -5.4548 5.31001 32.2744 -5.59347 -0.0 0.0 -0.0 0.131172 22.754 2.81902 -12.2572 -21.6861 62.516 1.26121 -31.9944 0.361594 2.20288 0.0723904 -0.27203 0.102639 3.32719 2.07422 -0.0 0.0 -0.0 13.9376 26.1728 -27.8356 -8.68864 6.24142 -64.5111 0.850913 22.8561 -0.17201 18.8451 -0.274687 2.38079 -1.40173 -6.34005 6.51814 0.0 0.0 0.0 -4.22272 12.4701 9.90471 -42.651 -0.643979 6.36535 37.3523 1.88101 -4.62926 -18.5422 0.0 0.0 -0.0 0.0 -0.0 19.0133 -4.71123 -2.67417 -14.7229 -0.321162 -2.23038 19.6838 29.5146 3.35209 -17.073 0.0 0.0 0.0 0.0 0.0 
2514.76946025 744.338 -1547.92930944 -0.955541785614 55.1889046315 -3.67469940619 1.08885 0.244203 1.47459 1.09005 0.149887 1.48714 1.09423 -0.137639 1.48832 1.09115 0.0991142 1.49138 3.76785 15.9256 -5.4548 5.31001 32.2744 -5.59347 -0.0 0.0 -0.0 0.131172 22.754 2.81902 -12.2572 -21.6861 62.516 1.26121 -31.9944 0.361594 2.20288 0.0723904 -0.27203 0.102639 3.32719 2.07422 -0.0 0.0 -0.0 13.9376 26.1728 -27.8356 -8.68864 6.24142 -64.5111 0.850913 22.8561 -0.17201 18.8451 -0.274687 2.38079 -1.40173 -6.34005 6.51814 0.0 0.0 0.0 -4.22272 12.4701 9.90471 -42.651 -0.643979 6.36535 37.3523 1.88101 -4.62926 -18.5422 0.0 0.0 -0.0 0.0 -0.0 19.0133 -4.71123 -2.67417 -14.7229 -0.321162 -2.23038 19.6838 29.5146 3.35209 -17.073 0.0 0.0 0.0 0.0 0.0 
